<mxfile host="app.diagrams.net" agent="Mozilla/5.0 (Windows NT 10.0; Win64; x64) AppleWebKit/537.36 (KHTML, like Gecko) Chrome/131.0.0.0 Safari/537.36" version="26.0.2">
  <diagram name="Page-1" id="TPo7DYlOJuk6vdXpbkWR">
    <mxGraphModel dx="1458" dy="2113" grid="1" gridSize="10" guides="1" tooltips="1" connect="1" arrows="1" fold="1" page="1" pageScale="1" pageWidth="850" pageHeight="1100" math="0" shadow="0">
      <root>
        <mxCell id="0" />
        <mxCell id="1" parent="0" />
        <mxCell id="QkU_ycG2qWLnNHQ2pi6Q-1" value="Media" style="rounded=1;whiteSpace=wrap;html=1;" vertex="1" parent="1">
          <mxGeometry x="270" y="240" width="100" height="50" as="geometry" />
        </mxCell>
        <mxCell id="QkU_ycG2qWLnNHQ2pi6Q-2" value="&lt;u&gt;id&lt;/u&gt;" style="ellipse;whiteSpace=wrap;html=1;" vertex="1" parent="1">
          <mxGeometry x="330" y="390" width="110" height="50" as="geometry" />
        </mxCell>
        <mxCell id="QkU_ycG2qWLnNHQ2pi6Q-3" value="type" style="ellipse;whiteSpace=wrap;html=1;" vertex="1" parent="1">
          <mxGeometry x="220" y="400" width="110" height="50" as="geometry" />
        </mxCell>
        <mxCell id="QkU_ycG2qWLnNHQ2pi6Q-4" value="category" style="ellipse;whiteSpace=wrap;html=1;" vertex="1" parent="1">
          <mxGeometry x="140" y="360" width="110" height="50" as="geometry" />
        </mxCell>
        <mxCell id="QkU_ycG2qWLnNHQ2pi6Q-5" value="price" style="ellipse;whiteSpace=wrap;html=1;" vertex="1" parent="1">
          <mxGeometry x="60" y="320" width="110" height="50" as="geometry" />
        </mxCell>
        <mxCell id="QkU_ycG2qWLnNHQ2pi6Q-6" value="quantity" style="ellipse;whiteSpace=wrap;html=1;" vertex="1" parent="1">
          <mxGeometry x="60" y="260" width="110" height="50" as="geometry" />
        </mxCell>
        <mxCell id="QkU_ycG2qWLnNHQ2pi6Q-7" value="title" style="ellipse;whiteSpace=wrap;html=1;" vertex="1" parent="1">
          <mxGeometry x="60" y="200" width="110" height="50" as="geometry" />
        </mxCell>
        <mxCell id="QkU_ycG2qWLnNHQ2pi6Q-8" value="value" style="ellipse;whiteSpace=wrap;html=1;" vertex="1" parent="1">
          <mxGeometry x="140" y="150" width="110" height="50" as="geometry" />
        </mxCell>
        <mxCell id="QkU_ycG2qWLnNHQ2pi6Q-9" value="imageUrl" style="ellipse;whiteSpace=wrap;html=1;" vertex="1" parent="1">
          <mxGeometry x="230" y="110" width="110" height="50" as="geometry" />
        </mxCell>
        <mxCell id="QkU_ycG2qWLnNHQ2pi6Q-10" value="is_rush" style="ellipse;whiteSpace=wrap;html=1;" vertex="1" parent="1">
          <mxGeometry x="340" y="90" width="110" height="50" as="geometry" />
        </mxCell>
        <mxCell id="QkU_ycG2qWLnNHQ2pi6Q-11" value="weight" style="ellipse;whiteSpace=wrap;html=1;" vertex="1" parent="1">
          <mxGeometry x="390" y="140" width="110" height="50" as="geometry" />
        </mxCell>
        <mxCell id="QkU_ycG2qWLnNHQ2pi6Q-12" value="" style="endArrow=none;html=1;rounded=0;entryX=0.602;entryY=0.964;entryDx=0;entryDy=0;entryPerimeter=0;" edge="1" parent="1" source="QkU_ycG2qWLnNHQ2pi6Q-2" target="QkU_ycG2qWLnNHQ2pi6Q-1">
          <mxGeometry width="50" height="50" relative="1" as="geometry">
            <mxPoint x="240" y="320" as="sourcePoint" />
            <mxPoint x="290" y="270" as="targetPoint" />
          </mxGeometry>
        </mxCell>
        <mxCell id="QkU_ycG2qWLnNHQ2pi6Q-13" value="" style="endArrow=none;html=1;rounded=0;entryX=0.594;entryY=0.964;entryDx=0;entryDy=0;entryPerimeter=0;exitX=0.615;exitY=0.036;exitDx=0;exitDy=0;exitPerimeter=0;" edge="1" parent="1" source="QkU_ycG2qWLnNHQ2pi6Q-3" target="QkU_ycG2qWLnNHQ2pi6Q-1">
          <mxGeometry width="50" height="50" relative="1" as="geometry">
            <mxPoint x="240" y="320" as="sourcePoint" />
            <mxPoint x="290" y="270" as="targetPoint" />
          </mxGeometry>
        </mxCell>
        <mxCell id="QkU_ycG2qWLnNHQ2pi6Q-14" value="" style="endArrow=none;html=1;rounded=0;exitX=0.629;exitY=0.052;exitDx=0;exitDy=0;exitPerimeter=0;entryX=0.602;entryY=0.948;entryDx=0;entryDy=0;entryPerimeter=0;" edge="1" parent="1" source="QkU_ycG2qWLnNHQ2pi6Q-4" target="QkU_ycG2qWLnNHQ2pi6Q-1">
          <mxGeometry width="50" height="50" relative="1" as="geometry">
            <mxPoint x="240" y="320" as="sourcePoint" />
            <mxPoint x="330" y="280" as="targetPoint" />
          </mxGeometry>
        </mxCell>
        <mxCell id="QkU_ycG2qWLnNHQ2pi6Q-15" value="" style="endArrow=none;html=1;rounded=0;entryX=0.608;entryY=0.948;entryDx=0;entryDy=0;entryPerimeter=0;" edge="1" parent="1" source="QkU_ycG2qWLnNHQ2pi6Q-5" target="QkU_ycG2qWLnNHQ2pi6Q-1">
          <mxGeometry width="50" height="50" relative="1" as="geometry">
            <mxPoint x="240" y="320" as="sourcePoint" />
            <mxPoint x="290" y="270" as="targetPoint" />
          </mxGeometry>
        </mxCell>
        <mxCell id="QkU_ycG2qWLnNHQ2pi6Q-16" value="" style="endArrow=none;html=1;rounded=0;exitX=1;exitY=0.5;exitDx=0;exitDy=0;entryX=0;entryY=0.25;entryDx=0;entryDy=0;" edge="1" parent="1" source="QkU_ycG2qWLnNHQ2pi6Q-6" target="QkU_ycG2qWLnNHQ2pi6Q-1">
          <mxGeometry width="50" height="50" relative="1" as="geometry">
            <mxPoint x="240" y="320" as="sourcePoint" />
            <mxPoint x="280" y="267" as="targetPoint" />
          </mxGeometry>
        </mxCell>
        <mxCell id="QkU_ycG2qWLnNHQ2pi6Q-17" value="" style="endArrow=none;html=1;rounded=0;entryX=0;entryY=0.25;entryDx=0;entryDy=0;" edge="1" parent="1" source="QkU_ycG2qWLnNHQ2pi6Q-7" target="QkU_ycG2qWLnNHQ2pi6Q-1">
          <mxGeometry width="50" height="50" relative="1" as="geometry">
            <mxPoint x="240" y="320" as="sourcePoint" />
            <mxPoint x="290" y="270" as="targetPoint" />
          </mxGeometry>
        </mxCell>
        <mxCell id="QkU_ycG2qWLnNHQ2pi6Q-18" value="" style="endArrow=none;html=1;rounded=0;exitX=1;exitY=1;exitDx=0;exitDy=0;entryX=0;entryY=0.25;entryDx=0;entryDy=0;" edge="1" parent="1" source="QkU_ycG2qWLnNHQ2pi6Q-8" target="QkU_ycG2qWLnNHQ2pi6Q-1">
          <mxGeometry width="50" height="50" relative="1" as="geometry">
            <mxPoint x="240" y="320" as="sourcePoint" />
            <mxPoint x="290" y="270" as="targetPoint" />
          </mxGeometry>
        </mxCell>
        <mxCell id="QkU_ycG2qWLnNHQ2pi6Q-19" value="" style="endArrow=none;html=1;rounded=0;exitX=0.5;exitY=0;exitDx=0;exitDy=0;" edge="1" parent="1" source="QkU_ycG2qWLnNHQ2pi6Q-1" target="QkU_ycG2qWLnNHQ2pi6Q-9">
          <mxGeometry width="50" height="50" relative="1" as="geometry">
            <mxPoint x="240" y="320" as="sourcePoint" />
            <mxPoint x="290" y="270" as="targetPoint" />
          </mxGeometry>
        </mxCell>
        <mxCell id="QkU_ycG2qWLnNHQ2pi6Q-20" value="" style="endArrow=none;html=1;rounded=0;exitX=0.5;exitY=0;exitDx=0;exitDy=0;" edge="1" parent="1" source="QkU_ycG2qWLnNHQ2pi6Q-1" target="QkU_ycG2qWLnNHQ2pi6Q-10">
          <mxGeometry width="50" height="50" relative="1" as="geometry">
            <mxPoint x="240" y="320" as="sourcePoint" />
            <mxPoint x="290" y="270" as="targetPoint" />
          </mxGeometry>
        </mxCell>
        <mxCell id="QkU_ycG2qWLnNHQ2pi6Q-21" value="" style="endArrow=none;html=1;rounded=0;exitX=0.5;exitY=0;exitDx=0;exitDy=0;" edge="1" parent="1" source="QkU_ycG2qWLnNHQ2pi6Q-1" target="QkU_ycG2qWLnNHQ2pi6Q-11">
          <mxGeometry width="50" height="50" relative="1" as="geometry">
            <mxPoint x="240" y="320" as="sourcePoint" />
            <mxPoint x="290" y="270" as="targetPoint" />
          </mxGeometry>
        </mxCell>
        <mxCell id="QkU_ycG2qWLnNHQ2pi6Q-23" value="CD" style="rounded=1;whiteSpace=wrap;html=1;" vertex="1" parent="1">
          <mxGeometry x="720" y="30" width="100" height="50" as="geometry" />
        </mxCell>
        <mxCell id="QkU_ycG2qWLnNHQ2pi6Q-24" value="artist" style="ellipse;whiteSpace=wrap;html=1;" vertex="1" parent="1">
          <mxGeometry x="560" y="-50" width="110" height="50" as="geometry" />
        </mxCell>
        <mxCell id="QkU_ycG2qWLnNHQ2pi6Q-25" value="recordLebel" style="ellipse;whiteSpace=wrap;html=1;" vertex="1" parent="1">
          <mxGeometry x="650" y="-90" width="110" height="50" as="geometry" />
        </mxCell>
        <mxCell id="QkU_ycG2qWLnNHQ2pi6Q-26" value="musicType" style="ellipse;whiteSpace=wrap;html=1;" vertex="1" parent="1">
          <mxGeometry x="770" y="-90" width="110" height="50" as="geometry" />
        </mxCell>
        <mxCell id="QkU_ycG2qWLnNHQ2pi6Q-27" value="releaseDate" style="ellipse;whiteSpace=wrap;html=1;" vertex="1" parent="1">
          <mxGeometry x="880" y="-60" width="110" height="50" as="geometry" />
        </mxCell>
        <mxCell id="QkU_ycG2qWLnNHQ2pi6Q-28" value="" style="endArrow=none;html=1;rounded=0;entryX=1;entryY=0.5;entryDx=0;entryDy=0;exitX=0.5;exitY=0;exitDx=0;exitDy=0;" edge="1" parent="1" source="QkU_ycG2qWLnNHQ2pi6Q-23" target="QkU_ycG2qWLnNHQ2pi6Q-24">
          <mxGeometry width="50" height="50" relative="1" as="geometry">
            <mxPoint x="660" y="160" as="sourcePoint" />
            <mxPoint x="710" y="110" as="targetPoint" />
          </mxGeometry>
        </mxCell>
        <mxCell id="QkU_ycG2qWLnNHQ2pi6Q-29" value="" style="endArrow=none;html=1;rounded=0;entryX=0.651;entryY=0.948;entryDx=0;entryDy=0;entryPerimeter=0;exitX=0.5;exitY=0;exitDx=0;exitDy=0;" edge="1" parent="1" source="QkU_ycG2qWLnNHQ2pi6Q-23" target="QkU_ycG2qWLnNHQ2pi6Q-25">
          <mxGeometry width="50" height="50" relative="1" as="geometry">
            <mxPoint x="660" y="160" as="sourcePoint" />
            <mxPoint x="710" y="110" as="targetPoint" />
          </mxGeometry>
        </mxCell>
        <mxCell id="QkU_ycG2qWLnNHQ2pi6Q-30" value="" style="endArrow=none;html=1;rounded=0;entryX=0.411;entryY=0.932;entryDx=0;entryDy=0;entryPerimeter=0;exitX=0.5;exitY=0;exitDx=0;exitDy=0;" edge="1" parent="1" source="QkU_ycG2qWLnNHQ2pi6Q-23" target="QkU_ycG2qWLnNHQ2pi6Q-26">
          <mxGeometry width="50" height="50" relative="1" as="geometry">
            <mxPoint x="660" y="160" as="sourcePoint" />
            <mxPoint x="710" y="110" as="targetPoint" />
          </mxGeometry>
        </mxCell>
        <mxCell id="QkU_ycG2qWLnNHQ2pi6Q-31" value="" style="endArrow=none;html=1;rounded=0;entryX=0.269;entryY=0.892;entryDx=0;entryDy=0;entryPerimeter=0;exitX=0.5;exitY=0;exitDx=0;exitDy=0;" edge="1" parent="1" source="QkU_ycG2qWLnNHQ2pi6Q-23" target="QkU_ycG2qWLnNHQ2pi6Q-27">
          <mxGeometry width="50" height="50" relative="1" as="geometry">
            <mxPoint x="770" y="20" as="sourcePoint" />
            <mxPoint x="710" y="110" as="targetPoint" />
          </mxGeometry>
        </mxCell>
        <mxCell id="QkU_ycG2qWLnNHQ2pi6Q-33" value="" style="edgeStyle=entityRelationEdgeStyle;fontSize=12;html=1;endArrow=ERmandOne;startArrow=ERmandOne;rounded=0;exitX=1;exitY=0.25;exitDx=0;exitDy=0;" edge="1" parent="1" source="QkU_ycG2qWLnNHQ2pi6Q-32" target="QkU_ycG2qWLnNHQ2pi6Q-23">
          <mxGeometry width="100" height="100" relative="1" as="geometry">
            <mxPoint x="430" y="270" as="sourcePoint" />
            <mxPoint x="530" y="170" as="targetPoint" />
            <Array as="points">
              <mxPoint x="710" y="80" />
              <mxPoint x="690" y="120" />
            </Array>
          </mxGeometry>
        </mxCell>
        <mxCell id="QkU_ycG2qWLnNHQ2pi6Q-34" value="" style="edgeStyle=entityRelationEdgeStyle;fontSize=12;html=1;endArrow=ERmandOne;startArrow=ERmandOne;rounded=0;exitX=1;exitY=0.25;exitDx=0;exitDy=0;" edge="1" parent="1" source="QkU_ycG2qWLnNHQ2pi6Q-1" target="QkU_ycG2qWLnNHQ2pi6Q-32">
          <mxGeometry width="100" height="100" relative="1" as="geometry">
            <mxPoint x="370" y="253" as="sourcePoint" />
            <mxPoint x="630" y="105" as="targetPoint" />
            <Array as="points">
              <mxPoint x="490" y="220" />
            </Array>
          </mxGeometry>
        </mxCell>
        <mxCell id="QkU_ycG2qWLnNHQ2pi6Q-32" value="is_a" style="rhombus;whiteSpace=wrap;html=1;" vertex="1" parent="1">
          <mxGeometry x="590" y="110" width="80" height="80" as="geometry" />
        </mxCell>
        <mxCell id="QkU_ycG2qWLnNHQ2pi6Q-35" value="DVD" style="rounded=1;whiteSpace=wrap;html=1;" vertex="1" parent="1">
          <mxGeometry x="1180" y="20" width="100" height="50" as="geometry" />
        </mxCell>
        <mxCell id="QkU_ycG2qWLnNHQ2pi6Q-36" value="discType" style="ellipse;whiteSpace=wrap;html=1;" vertex="1" parent="1">
          <mxGeometry x="1020" y="-60" width="110" height="50" as="geometry" />
        </mxCell>
        <mxCell id="QkU_ycG2qWLnNHQ2pi6Q-37" value="director" style="ellipse;whiteSpace=wrap;html=1;" vertex="1" parent="1">
          <mxGeometry x="1110" y="-100" width="110" height="50" as="geometry" />
        </mxCell>
        <mxCell id="QkU_ycG2qWLnNHQ2pi6Q-38" value="runtime" style="ellipse;whiteSpace=wrap;html=1;" vertex="1" parent="1">
          <mxGeometry x="1230" y="-100" width="110" height="50" as="geometry" />
        </mxCell>
        <mxCell id="QkU_ycG2qWLnNHQ2pi6Q-39" value="studio" style="ellipse;whiteSpace=wrap;html=1;" vertex="1" parent="1">
          <mxGeometry x="1340" y="-70" width="110" height="50" as="geometry" />
        </mxCell>
        <mxCell id="QkU_ycG2qWLnNHQ2pi6Q-40" value="" style="endArrow=none;html=1;rounded=0;entryX=1;entryY=0.5;entryDx=0;entryDy=0;exitX=0.5;exitY=0;exitDx=0;exitDy=0;" edge="1" source="QkU_ycG2qWLnNHQ2pi6Q-35" target="QkU_ycG2qWLnNHQ2pi6Q-36" parent="1">
          <mxGeometry width="50" height="50" relative="1" as="geometry">
            <mxPoint x="1120" y="150" as="sourcePoint" />
            <mxPoint x="1170" y="100" as="targetPoint" />
          </mxGeometry>
        </mxCell>
        <mxCell id="QkU_ycG2qWLnNHQ2pi6Q-41" value="" style="endArrow=none;html=1;rounded=0;entryX=0.651;entryY=0.948;entryDx=0;entryDy=0;entryPerimeter=0;exitX=0.5;exitY=0;exitDx=0;exitDy=0;" edge="1" source="QkU_ycG2qWLnNHQ2pi6Q-35" target="QkU_ycG2qWLnNHQ2pi6Q-37" parent="1">
          <mxGeometry width="50" height="50" relative="1" as="geometry">
            <mxPoint x="1120" y="150" as="sourcePoint" />
            <mxPoint x="1170" y="100" as="targetPoint" />
          </mxGeometry>
        </mxCell>
        <mxCell id="QkU_ycG2qWLnNHQ2pi6Q-42" value="" style="endArrow=none;html=1;rounded=0;entryX=0.411;entryY=0.932;entryDx=0;entryDy=0;entryPerimeter=0;exitX=0.5;exitY=0;exitDx=0;exitDy=0;" edge="1" source="QkU_ycG2qWLnNHQ2pi6Q-35" target="QkU_ycG2qWLnNHQ2pi6Q-38" parent="1">
          <mxGeometry width="50" height="50" relative="1" as="geometry">
            <mxPoint x="1120" y="150" as="sourcePoint" />
            <mxPoint x="1170" y="100" as="targetPoint" />
          </mxGeometry>
        </mxCell>
        <mxCell id="QkU_ycG2qWLnNHQ2pi6Q-43" value="" style="endArrow=none;html=1;rounded=0;entryX=0.269;entryY=0.892;entryDx=0;entryDy=0;entryPerimeter=0;exitX=0.5;exitY=0;exitDx=0;exitDy=0;" edge="1" source="QkU_ycG2qWLnNHQ2pi6Q-35" target="QkU_ycG2qWLnNHQ2pi6Q-39" parent="1">
          <mxGeometry width="50" height="50" relative="1" as="geometry">
            <mxPoint x="1230" y="10" as="sourcePoint" />
            <mxPoint x="1170" y="100" as="targetPoint" />
          </mxGeometry>
        </mxCell>
        <mxCell id="QkU_ycG2qWLnNHQ2pi6Q-44" value="subtitle" style="ellipse;whiteSpace=wrap;html=1;" vertex="1" parent="1">
          <mxGeometry x="1400" y="-20" width="110" height="50" as="geometry" />
        </mxCell>
        <mxCell id="QkU_ycG2qWLnNHQ2pi6Q-45" value="releasedDate" style="ellipse;whiteSpace=wrap;html=1;" vertex="1" parent="1">
          <mxGeometry x="1400" y="40" width="110" height="50" as="geometry" />
        </mxCell>
        <mxCell id="QkU_ycG2qWLnNHQ2pi6Q-46" value="filmType" style="ellipse;whiteSpace=wrap;html=1;" vertex="1" parent="1">
          <mxGeometry x="1400" y="100" width="110" height="50" as="geometry" />
        </mxCell>
        <mxCell id="QkU_ycG2qWLnNHQ2pi6Q-47" value="" style="endArrow=none;html=1;rounded=0;entryX=-0.011;entryY=0.692;entryDx=0;entryDy=0;entryPerimeter=0;exitX=1;exitY=0.5;exitDx=0;exitDy=0;" edge="1" parent="1" source="QkU_ycG2qWLnNHQ2pi6Q-35" target="QkU_ycG2qWLnNHQ2pi6Q-44">
          <mxGeometry relative="1" as="geometry">
            <mxPoint x="1160" y="110" as="sourcePoint" />
            <mxPoint x="1320" y="110" as="targetPoint" />
          </mxGeometry>
        </mxCell>
        <mxCell id="QkU_ycG2qWLnNHQ2pi6Q-48" value="" style="endArrow=none;html=1;rounded=0;entryX=0;entryY=0.5;entryDx=0;entryDy=0;exitX=1;exitY=0.5;exitDx=0;exitDy=0;" edge="1" parent="1" source="QkU_ycG2qWLnNHQ2pi6Q-35" target="QkU_ycG2qWLnNHQ2pi6Q-45">
          <mxGeometry relative="1" as="geometry">
            <mxPoint x="1160" y="110" as="sourcePoint" />
            <mxPoint x="1320" y="110" as="targetPoint" />
          </mxGeometry>
        </mxCell>
        <mxCell id="QkU_ycG2qWLnNHQ2pi6Q-49" value="" style="endArrow=none;html=1;rounded=0;exitX=1;exitY=0.5;exitDx=0;exitDy=0;" edge="1" parent="1" source="QkU_ycG2qWLnNHQ2pi6Q-35" target="QkU_ycG2qWLnNHQ2pi6Q-46">
          <mxGeometry relative="1" as="geometry">
            <mxPoint x="1160" y="110" as="sourcePoint" />
            <mxPoint x="1320" y="110" as="targetPoint" />
          </mxGeometry>
        </mxCell>
        <mxCell id="QkU_ycG2qWLnNHQ2pi6Q-50" value="" style="edgeStyle=entityRelationEdgeStyle;fontSize=12;html=1;endArrow=ERmandOne;startArrow=ERmandOne;rounded=0;exitX=1;exitY=0.75;exitDx=0;exitDy=0;" edge="1" parent="1" source="QkU_ycG2qWLnNHQ2pi6Q-51" target="QkU_ycG2qWLnNHQ2pi6Q-35">
          <mxGeometry width="100" height="100" relative="1" as="geometry">
            <mxPoint x="630" y="300" as="sourcePoint" />
            <mxPoint x="730" y="200" as="targetPoint" />
          </mxGeometry>
        </mxCell>
        <mxCell id="QkU_ycG2qWLnNHQ2pi6Q-52" value="" style="edgeStyle=entityRelationEdgeStyle;fontSize=12;html=1;endArrow=ERmandOne;startArrow=ERmandOne;rounded=0;exitX=1.01;exitY=0.411;exitDx=0;exitDy=0;exitPerimeter=0;" edge="1" parent="1" source="QkU_ycG2qWLnNHQ2pi6Q-1" target="QkU_ycG2qWLnNHQ2pi6Q-51">
          <mxGeometry width="100" height="100" relative="1" as="geometry">
            <mxPoint x="370" y="278" as="sourcePoint" />
            <mxPoint x="1180" y="45" as="targetPoint" />
          </mxGeometry>
        </mxCell>
        <mxCell id="QkU_ycG2qWLnNHQ2pi6Q-51" value="is_a" style="rhombus;whiteSpace=wrap;html=1;" vertex="1" parent="1">
          <mxGeometry x="700" y="150" width="80" height="80" as="geometry" />
        </mxCell>
        <mxCell id="QkU_ycG2qWLnNHQ2pi6Q-53" value="DVD" style="rounded=1;whiteSpace=wrap;html=1;" vertex="1" parent="1">
          <mxGeometry x="1200" y="290" width="100" height="50" as="geometry" />
        </mxCell>
        <mxCell id="QkU_ycG2qWLnNHQ2pi6Q-54" value="author" style="ellipse;whiteSpace=wrap;html=1;" vertex="1" parent="1">
          <mxGeometry x="1040" y="210" width="110" height="50" as="geometry" />
        </mxCell>
        <mxCell id="QkU_ycG2qWLnNHQ2pi6Q-55" value="coverType" style="ellipse;whiteSpace=wrap;html=1;" vertex="1" parent="1">
          <mxGeometry x="1130" y="170" width="110" height="50" as="geometry" />
        </mxCell>
        <mxCell id="QkU_ycG2qWLnNHQ2pi6Q-56" value="publisher" style="ellipse;whiteSpace=wrap;html=1;" vertex="1" parent="1">
          <mxGeometry x="1250" y="170" width="110" height="50" as="geometry" />
        </mxCell>
        <mxCell id="QkU_ycG2qWLnNHQ2pi6Q-57" value="publishDate" style="ellipse;whiteSpace=wrap;html=1;" vertex="1" parent="1">
          <mxGeometry x="1360" y="200" width="110" height="50" as="geometry" />
        </mxCell>
        <mxCell id="QkU_ycG2qWLnNHQ2pi6Q-58" value="" style="endArrow=none;html=1;rounded=0;entryX=0.649;entryY=0.968;entryDx=0;entryDy=0;exitX=0.5;exitY=0;exitDx=0;exitDy=0;entryPerimeter=0;" edge="1" source="QkU_ycG2qWLnNHQ2pi6Q-53" target="QkU_ycG2qWLnNHQ2pi6Q-54" parent="1">
          <mxGeometry width="50" height="50" relative="1" as="geometry">
            <mxPoint x="1140" y="420" as="sourcePoint" />
            <mxPoint x="1150" y="235" as="targetPoint" />
          </mxGeometry>
        </mxCell>
        <mxCell id="QkU_ycG2qWLnNHQ2pi6Q-59" value="" style="endArrow=none;html=1;rounded=0;entryX=0.651;entryY=0.948;entryDx=0;entryDy=0;entryPerimeter=0;exitX=0.5;exitY=0;exitDx=0;exitDy=0;" edge="1" source="QkU_ycG2qWLnNHQ2pi6Q-53" target="QkU_ycG2qWLnNHQ2pi6Q-55" parent="1">
          <mxGeometry width="50" height="50" relative="1" as="geometry">
            <mxPoint x="1140" y="420" as="sourcePoint" />
            <mxPoint x="1190" y="370" as="targetPoint" />
          </mxGeometry>
        </mxCell>
        <mxCell id="QkU_ycG2qWLnNHQ2pi6Q-60" value="" style="endArrow=none;html=1;rounded=0;entryX=0.411;entryY=0.932;entryDx=0;entryDy=0;entryPerimeter=0;exitX=0.5;exitY=0;exitDx=0;exitDy=0;" edge="1" source="QkU_ycG2qWLnNHQ2pi6Q-53" target="QkU_ycG2qWLnNHQ2pi6Q-56" parent="1">
          <mxGeometry width="50" height="50" relative="1" as="geometry">
            <mxPoint x="1140" y="420" as="sourcePoint" />
            <mxPoint x="1190" y="370" as="targetPoint" />
          </mxGeometry>
        </mxCell>
        <mxCell id="QkU_ycG2qWLnNHQ2pi6Q-61" value="" style="endArrow=none;html=1;rounded=0;entryX=0.269;entryY=0.892;entryDx=0;entryDy=0;entryPerimeter=0;exitX=0.5;exitY=0;exitDx=0;exitDy=0;" edge="1" source="QkU_ycG2qWLnNHQ2pi6Q-53" target="QkU_ycG2qWLnNHQ2pi6Q-57" parent="1">
          <mxGeometry width="50" height="50" relative="1" as="geometry">
            <mxPoint x="1250" y="280" as="sourcePoint" />
            <mxPoint x="1190" y="370" as="targetPoint" />
          </mxGeometry>
        </mxCell>
        <mxCell id="QkU_ycG2qWLnNHQ2pi6Q-62" value="numOfPages" style="ellipse;whiteSpace=wrap;html=1;" vertex="1" parent="1">
          <mxGeometry x="1420" y="250" width="110" height="50" as="geometry" />
        </mxCell>
        <mxCell id="QkU_ycG2qWLnNHQ2pi6Q-63" value="language" style="ellipse;whiteSpace=wrap;html=1;" vertex="1" parent="1">
          <mxGeometry x="1420" y="310" width="110" height="50" as="geometry" />
        </mxCell>
        <mxCell id="QkU_ycG2qWLnNHQ2pi6Q-64" value="bookCategory" style="ellipse;whiteSpace=wrap;html=1;" vertex="1" parent="1">
          <mxGeometry x="1420" y="370" width="110" height="50" as="geometry" />
        </mxCell>
        <mxCell id="QkU_ycG2qWLnNHQ2pi6Q-65" value="" style="endArrow=none;html=1;rounded=0;entryX=-0.011;entryY=0.692;entryDx=0;entryDy=0;entryPerimeter=0;exitX=1;exitY=0.5;exitDx=0;exitDy=0;" edge="1" source="QkU_ycG2qWLnNHQ2pi6Q-53" target="QkU_ycG2qWLnNHQ2pi6Q-62" parent="1">
          <mxGeometry relative="1" as="geometry">
            <mxPoint x="1180" y="380" as="sourcePoint" />
            <mxPoint x="1340" y="380" as="targetPoint" />
          </mxGeometry>
        </mxCell>
        <mxCell id="QkU_ycG2qWLnNHQ2pi6Q-66" value="" style="endArrow=none;html=1;rounded=0;entryX=0;entryY=0.5;entryDx=0;entryDy=0;exitX=1;exitY=0.5;exitDx=0;exitDy=0;" edge="1" source="QkU_ycG2qWLnNHQ2pi6Q-53" target="QkU_ycG2qWLnNHQ2pi6Q-63" parent="1">
          <mxGeometry relative="1" as="geometry">
            <mxPoint x="1180" y="380" as="sourcePoint" />
            <mxPoint x="1340" y="380" as="targetPoint" />
          </mxGeometry>
        </mxCell>
        <mxCell id="QkU_ycG2qWLnNHQ2pi6Q-67" value="" style="endArrow=none;html=1;rounded=0;exitX=1;exitY=0.5;exitDx=0;exitDy=0;" edge="1" source="QkU_ycG2qWLnNHQ2pi6Q-53" target="QkU_ycG2qWLnNHQ2pi6Q-64" parent="1">
          <mxGeometry relative="1" as="geometry">
            <mxPoint x="1180" y="380" as="sourcePoint" />
            <mxPoint x="1340" y="380" as="targetPoint" />
          </mxGeometry>
        </mxCell>
        <mxCell id="QkU_ycG2qWLnNHQ2pi6Q-68" value="" style="edgeStyle=entityRelationEdgeStyle;fontSize=12;html=1;endArrow=ERmandOne;startArrow=ERmandOne;rounded=0;exitX=1;exitY=0.75;exitDx=0;exitDy=0;entryX=0;entryY=0.25;entryDx=0;entryDy=0;" edge="1" parent="1" source="QkU_ycG2qWLnNHQ2pi6Q-69" target="QkU_ycG2qWLnNHQ2pi6Q-53">
          <mxGeometry width="100" height="100" relative="1" as="geometry">
            <mxPoint x="690" y="360" as="sourcePoint" />
            <mxPoint x="790" y="260" as="targetPoint" />
          </mxGeometry>
        </mxCell>
        <mxCell id="QkU_ycG2qWLnNHQ2pi6Q-70" value="" style="edgeStyle=entityRelationEdgeStyle;fontSize=12;html=1;endArrow=ERmandOne;startArrow=ERmandOne;rounded=0;exitX=1;exitY=0.75;exitDx=0;exitDy=0;entryX=0;entryY=0.25;entryDx=0;entryDy=0;" edge="1" parent="1" source="QkU_ycG2qWLnNHQ2pi6Q-1" target="QkU_ycG2qWLnNHQ2pi6Q-69">
          <mxGeometry width="100" height="100" relative="1" as="geometry">
            <mxPoint x="370" y="278" as="sourcePoint" />
            <mxPoint x="1200" y="303" as="targetPoint" />
          </mxGeometry>
        </mxCell>
        <mxCell id="QkU_ycG2qWLnNHQ2pi6Q-69" value="is_a" style="rhombus;whiteSpace=wrap;html=1;" vertex="1" parent="1">
          <mxGeometry x="740" y="230" width="80" height="80" as="geometry" />
        </mxCell>
        <mxCell id="QkU_ycG2qWLnNHQ2pi6Q-71" value="OrderMedia" style="rounded=1;whiteSpace=wrap;html=1;" vertex="1" parent="1">
          <mxGeometry x="690" y="360" width="100" height="50" as="geometry" />
        </mxCell>
        <mxCell id="QkU_ycG2qWLnNHQ2pi6Q-75" value="&lt;u&gt;mediaID&lt;/u&gt;" style="ellipse;whiteSpace=wrap;html=1;" vertex="1" parent="1">
          <mxGeometry x="600" y="450" width="110" height="50" as="geometry" />
        </mxCell>
        <mxCell id="QkU_ycG2qWLnNHQ2pi6Q-76" value="quantity" style="ellipse;whiteSpace=wrap;html=1;" vertex="1" parent="1">
          <mxGeometry x="715" y="450" width="110" height="50" as="geometry" />
        </mxCell>
        <mxCell id="QkU_ycG2qWLnNHQ2pi6Q-77" value="" style="endArrow=none;html=1;rounded=0;entryX=0.5;entryY=0;entryDx=0;entryDy=0;exitX=0.5;exitY=1;exitDx=0;exitDy=0;" edge="1" parent="1" source="QkU_ycG2qWLnNHQ2pi6Q-71" target="QkU_ycG2qWLnNHQ2pi6Q-75">
          <mxGeometry relative="1" as="geometry">
            <mxPoint x="670" y="500" as="sourcePoint" />
            <mxPoint x="830" y="500" as="targetPoint" />
          </mxGeometry>
        </mxCell>
        <mxCell id="QkU_ycG2qWLnNHQ2pi6Q-78" value="" style="endArrow=none;html=1;rounded=0;exitX=0.5;exitY=1;exitDx=0;exitDy=0;entryX=0.365;entryY=0;entryDx=0;entryDy=0;entryPerimeter=0;" edge="1" parent="1" source="QkU_ycG2qWLnNHQ2pi6Q-71" target="QkU_ycG2qWLnNHQ2pi6Q-76">
          <mxGeometry relative="1" as="geometry">
            <mxPoint x="670" y="500" as="sourcePoint" />
            <mxPoint x="830" y="500" as="targetPoint" />
          </mxGeometry>
        </mxCell>
        <mxCell id="QkU_ycG2qWLnNHQ2pi6Q-79" value="Order" style="rounded=1;whiteSpace=wrap;html=1;" vertex="1" parent="1">
          <mxGeometry x="1170" y="580" width="100" height="50" as="geometry" />
        </mxCell>
        <mxCell id="QkU_ycG2qWLnNHQ2pi6Q-81" value="" style="edgeStyle=entityRelationEdgeStyle;fontSize=12;html=1;endArrow=ERmandOne;startArrow=ERmandOne;rounded=0;entryX=1;entryY=1;entryDx=0;entryDy=0;exitX=0;exitY=0.75;exitDx=0;exitDy=0;" edge="1" parent="1" source="QkU_ycG2qWLnNHQ2pi6Q-73" target="QkU_ycG2qWLnNHQ2pi6Q-1">
          <mxGeometry width="100" height="100" relative="1" as="geometry">
            <mxPoint x="450" y="550" as="sourcePoint" />
            <mxPoint x="550" y="450" as="targetPoint" />
          </mxGeometry>
        </mxCell>
        <mxCell id="QkU_ycG2qWLnNHQ2pi6Q-82" value="" style="edgeStyle=entityRelationEdgeStyle;fontSize=12;html=1;endArrow=ERmandOne;startArrow=ERmandOne;rounded=0;entryX=1;entryY=1;entryDx=0;entryDy=0;exitX=0;exitY=0.75;exitDx=0;exitDy=0;" edge="1" parent="1" source="QkU_ycG2qWLnNHQ2pi6Q-71" target="QkU_ycG2qWLnNHQ2pi6Q-73">
          <mxGeometry width="100" height="100" relative="1" as="geometry">
            <mxPoint x="690" y="398" as="sourcePoint" />
            <mxPoint x="370" y="290" as="targetPoint" />
          </mxGeometry>
        </mxCell>
        <mxCell id="QkU_ycG2qWLnNHQ2pi6Q-73" value="is_a" style="rhombus;whiteSpace=wrap;html=1;" vertex="1" parent="1">
          <mxGeometry x="490" y="300" width="80" height="80" as="geometry" />
        </mxCell>
        <mxCell id="QkU_ycG2qWLnNHQ2pi6Q-83" value="" style="edgeStyle=entityRelationEdgeStyle;fontSize=12;html=1;endArrow=ERoneToMany;rounded=0;entryX=1;entryY=0.5;entryDx=0;entryDy=0;exitX=0;exitY=0.5;exitDx=0;exitDy=0;" edge="1" parent="1" source="QkU_ycG2qWLnNHQ2pi6Q-84" target="QkU_ycG2qWLnNHQ2pi6Q-71">
          <mxGeometry width="100" height="100" relative="1" as="geometry">
            <mxPoint x="780" y="550" as="sourcePoint" />
            <mxPoint x="880" y="450" as="targetPoint" />
          </mxGeometry>
        </mxCell>
        <mxCell id="QkU_ycG2qWLnNHQ2pi6Q-85" value="" style="edgeStyle=entityRelationEdgeStyle;fontSize=12;html=1;endArrow=ERoneToMany;rounded=0;entryX=1;entryY=0.5;entryDx=0;entryDy=0;exitX=0;exitY=0.5;exitDx=0;exitDy=0;" edge="1" parent="1" source="QkU_ycG2qWLnNHQ2pi6Q-79" target="QkU_ycG2qWLnNHQ2pi6Q-84">
          <mxGeometry width="100" height="100" relative="1" as="geometry">
            <mxPoint x="1070" y="465" as="sourcePoint" />
            <mxPoint x="790" y="385" as="targetPoint" />
          </mxGeometry>
        </mxCell>
        <mxCell id="QkU_ycG2qWLnNHQ2pi6Q-84" value="include" style="rhombus;whiteSpace=wrap;html=1;" vertex="1" parent="1">
          <mxGeometry x="880" y="385" width="80" height="80" as="geometry" />
        </mxCell>
        <mxCell id="QkU_ycG2qWLnNHQ2pi6Q-86" value="&lt;u&gt;id&lt;/u&gt;" style="ellipse;whiteSpace=wrap;html=1;" vertex="1" parent="1">
          <mxGeometry x="1030" y="430" width="110" height="50" as="geometry" />
        </mxCell>
        <mxCell id="QkU_ycG2qWLnNHQ2pi6Q-87" value="name" style="ellipse;whiteSpace=wrap;html=1;" vertex="1" parent="1">
          <mxGeometry x="1150" y="430" width="110" height="50" as="geometry" />
        </mxCell>
        <mxCell id="QkU_ycG2qWLnNHQ2pi6Q-88" value="email" style="ellipse;whiteSpace=wrap;html=1;" vertex="1" parent="1">
          <mxGeometry x="1270" y="430" width="110" height="50" as="geometry" />
        </mxCell>
        <mxCell id="QkU_ycG2qWLnNHQ2pi6Q-89" value="address" style="ellipse;whiteSpace=wrap;html=1;" vertex="1" parent="1">
          <mxGeometry x="1390" y="440" width="110" height="50" as="geometry" />
        </mxCell>
        <mxCell id="QkU_ycG2qWLnNHQ2pi6Q-90" value="phone" style="ellipse;whiteSpace=wrap;html=1;" vertex="1" parent="1">
          <mxGeometry x="1400" y="500" width="110" height="50" as="geometry" />
        </mxCell>
        <mxCell id="QkU_ycG2qWLnNHQ2pi6Q-91" value="province" style="ellipse;whiteSpace=wrap;html=1;" vertex="1" parent="1">
          <mxGeometry x="1400" y="560" width="110" height="50" as="geometry" />
        </mxCell>
        <mxCell id="QkU_ycG2qWLnNHQ2pi6Q-92" value="shipping_fee" style="ellipse;whiteSpace=wrap;html=1;" vertex="1" parent="1">
          <mxGeometry x="1370" y="620" width="110" height="50" as="geometry" />
        </mxCell>
        <mxCell id="QkU_ycG2qWLnNHQ2pi6Q-93" value="totalAmount" style="ellipse;whiteSpace=wrap;html=1;" vertex="1" parent="1">
          <mxGeometry x="1350" y="680" width="110" height="50" as="geometry" />
        </mxCell>
        <mxCell id="QkU_ycG2qWLnNHQ2pi6Q-94" value="orderStatus" style="ellipse;whiteSpace=wrap;html=1;" vertex="1" parent="1">
          <mxGeometry x="1260" y="720" width="110" height="50" as="geometry" />
        </mxCell>
        <mxCell id="QkU_ycG2qWLnNHQ2pi6Q-95" value="paymentType" style="ellipse;whiteSpace=wrap;html=1;" vertex="1" parent="1">
          <mxGeometry x="1140" y="720" width="110" height="50" as="geometry" />
        </mxCell>
        <mxCell id="QkU_ycG2qWLnNHQ2pi6Q-96" value="is_rush" style="ellipse;whiteSpace=wrap;html=1;" vertex="1" parent="1">
          <mxGeometry x="1020" y="720" width="110" height="50" as="geometry" />
        </mxCell>
        <mxCell id="QkU_ycG2qWLnNHQ2pi6Q-97" value="" style="endArrow=none;html=1;rounded=0;exitX=0.5;exitY=1;exitDx=0;exitDy=0;entryX=0.5;entryY=0;entryDx=0;entryDy=0;" edge="1" parent="1" source="QkU_ycG2qWLnNHQ2pi6Q-86" target="QkU_ycG2qWLnNHQ2pi6Q-79">
          <mxGeometry relative="1" as="geometry">
            <mxPoint x="1030" y="580" as="sourcePoint" />
            <mxPoint x="1190" y="580" as="targetPoint" />
          </mxGeometry>
        </mxCell>
        <mxCell id="QkU_ycG2qWLnNHQ2pi6Q-98" value="" style="endArrow=none;html=1;rounded=0;exitX=0.445;exitY=0.939;exitDx=0;exitDy=0;exitPerimeter=0;entryX=0.5;entryY=0;entryDx=0;entryDy=0;" edge="1" parent="1" source="QkU_ycG2qWLnNHQ2pi6Q-87" target="QkU_ycG2qWLnNHQ2pi6Q-79">
          <mxGeometry relative="1" as="geometry">
            <mxPoint x="1030" y="580" as="sourcePoint" />
            <mxPoint x="1190" y="580" as="targetPoint" />
          </mxGeometry>
        </mxCell>
        <mxCell id="QkU_ycG2qWLnNHQ2pi6Q-99" value="" style="endArrow=none;html=1;rounded=0;exitX=0.5;exitY=1;exitDx=0;exitDy=0;entryX=0.5;entryY=0;entryDx=0;entryDy=0;" edge="1" parent="1" source="QkU_ycG2qWLnNHQ2pi6Q-88" target="QkU_ycG2qWLnNHQ2pi6Q-79">
          <mxGeometry relative="1" as="geometry">
            <mxPoint x="1030" y="580" as="sourcePoint" />
            <mxPoint x="1190" y="580" as="targetPoint" />
          </mxGeometry>
        </mxCell>
        <mxCell id="QkU_ycG2qWLnNHQ2pi6Q-100" value="" style="endArrow=none;html=1;rounded=0;entryX=0;entryY=1;entryDx=0;entryDy=0;exitX=1;exitY=0.5;exitDx=0;exitDy=0;" edge="1" parent="1" source="QkU_ycG2qWLnNHQ2pi6Q-79" target="QkU_ycG2qWLnNHQ2pi6Q-89">
          <mxGeometry relative="1" as="geometry">
            <mxPoint x="1030" y="580" as="sourcePoint" />
            <mxPoint x="1190" y="580" as="targetPoint" />
          </mxGeometry>
        </mxCell>
        <mxCell id="QkU_ycG2qWLnNHQ2pi6Q-101" value="" style="endArrow=none;html=1;rounded=0;entryX=0.025;entryY=0.752;entryDx=0;entryDy=0;entryPerimeter=0;exitX=1;exitY=0.5;exitDx=0;exitDy=0;" edge="1" parent="1" source="QkU_ycG2qWLnNHQ2pi6Q-79" target="QkU_ycG2qWLnNHQ2pi6Q-90">
          <mxGeometry relative="1" as="geometry">
            <mxPoint x="1030" y="580" as="sourcePoint" />
            <mxPoint x="1190" y="580" as="targetPoint" />
          </mxGeometry>
        </mxCell>
        <mxCell id="QkU_ycG2qWLnNHQ2pi6Q-102" value="" style="endArrow=none;html=1;rounded=0;entryX=0;entryY=0.5;entryDx=0;entryDy=0;exitX=1;exitY=0.5;exitDx=0;exitDy=0;" edge="1" parent="1" source="QkU_ycG2qWLnNHQ2pi6Q-79" target="QkU_ycG2qWLnNHQ2pi6Q-91">
          <mxGeometry relative="1" as="geometry">
            <mxPoint x="1030" y="580" as="sourcePoint" />
            <mxPoint x="1190" y="580" as="targetPoint" />
          </mxGeometry>
        </mxCell>
        <mxCell id="QkU_ycG2qWLnNHQ2pi6Q-103" value="" style="endArrow=none;html=1;rounded=0;entryX=0;entryY=0.5;entryDx=0;entryDy=0;exitX=1;exitY=0.5;exitDx=0;exitDy=0;" edge="1" parent="1" source="QkU_ycG2qWLnNHQ2pi6Q-79" target="QkU_ycG2qWLnNHQ2pi6Q-92">
          <mxGeometry relative="1" as="geometry">
            <mxPoint x="1030" y="580" as="sourcePoint" />
            <mxPoint x="1190" y="580" as="targetPoint" />
          </mxGeometry>
        </mxCell>
        <mxCell id="QkU_ycG2qWLnNHQ2pi6Q-104" value="" style="endArrow=none;html=1;rounded=0;entryX=0.028;entryY=0.301;entryDx=0;entryDy=0;entryPerimeter=0;exitX=0.5;exitY=1;exitDx=0;exitDy=0;" edge="1" parent="1" source="QkU_ycG2qWLnNHQ2pi6Q-79" target="QkU_ycG2qWLnNHQ2pi6Q-93">
          <mxGeometry relative="1" as="geometry">
            <mxPoint x="1030" y="580" as="sourcePoint" />
            <mxPoint x="1190" y="580" as="targetPoint" />
          </mxGeometry>
        </mxCell>
        <mxCell id="QkU_ycG2qWLnNHQ2pi6Q-105" value="" style="endArrow=none;html=1;rounded=0;entryX=0.356;entryY=-0.011;entryDx=0;entryDy=0;entryPerimeter=0;exitX=0.5;exitY=1;exitDx=0;exitDy=0;" edge="1" parent="1" source="QkU_ycG2qWLnNHQ2pi6Q-79" target="QkU_ycG2qWLnNHQ2pi6Q-94">
          <mxGeometry relative="1" as="geometry">
            <mxPoint x="1030" y="580" as="sourcePoint" />
            <mxPoint x="1190" y="580" as="targetPoint" />
          </mxGeometry>
        </mxCell>
        <mxCell id="QkU_ycG2qWLnNHQ2pi6Q-106" value="" style="endArrow=none;html=1;rounded=0;entryX=0.5;entryY=0;entryDx=0;entryDy=0;exitX=0.5;exitY=1;exitDx=0;exitDy=0;" edge="1" parent="1" source="QkU_ycG2qWLnNHQ2pi6Q-79" target="QkU_ycG2qWLnNHQ2pi6Q-95">
          <mxGeometry relative="1" as="geometry">
            <mxPoint x="1030" y="580" as="sourcePoint" />
            <mxPoint x="1190" y="580" as="targetPoint" />
          </mxGeometry>
        </mxCell>
        <mxCell id="QkU_ycG2qWLnNHQ2pi6Q-107" value="" style="endArrow=none;html=1;rounded=0;entryX=0.5;entryY=0;entryDx=0;entryDy=0;exitX=0.5;exitY=1;exitDx=0;exitDy=0;" edge="1" parent="1" source="QkU_ycG2qWLnNHQ2pi6Q-79" target="QkU_ycG2qWLnNHQ2pi6Q-96">
          <mxGeometry relative="1" as="geometry">
            <mxPoint x="1030" y="580" as="sourcePoint" />
            <mxPoint x="1190" y="580" as="targetPoint" />
          </mxGeometry>
        </mxCell>
        <mxCell id="QkU_ycG2qWLnNHQ2pi6Q-108" value="PaymentTransaction" style="rounded=1;whiteSpace=wrap;html=1;" vertex="1" parent="1">
          <mxGeometry x="750" y="650" width="140" height="50" as="geometry" />
        </mxCell>
        <mxCell id="QkU_ycG2qWLnNHQ2pi6Q-109" value="" style="edgeStyle=entityRelationEdgeStyle;fontSize=12;html=1;endArrow=ERmandOne;startArrow=ERmandOne;rounded=0;entryX=0;entryY=0.75;entryDx=0;entryDy=0;exitX=1;exitY=0.5;exitDx=0;exitDy=0;" edge="1" parent="1" source="QkU_ycG2qWLnNHQ2pi6Q-110" target="QkU_ycG2qWLnNHQ2pi6Q-79">
          <mxGeometry width="100" height="100" relative="1" as="geometry">
            <mxPoint x="840" y="610" as="sourcePoint" />
            <mxPoint x="940" y="510" as="targetPoint" />
          </mxGeometry>
        </mxCell>
        <mxCell id="QkU_ycG2qWLnNHQ2pi6Q-111" value="" style="edgeStyle=entityRelationEdgeStyle;fontSize=12;html=1;endArrow=ERmandOne;startArrow=ERmandOne;rounded=0;entryX=0;entryY=0.75;entryDx=0;entryDy=0;exitX=1;exitY=0.5;exitDx=0;exitDy=0;" edge="1" parent="1" source="QkU_ycG2qWLnNHQ2pi6Q-108" target="QkU_ycG2qWLnNHQ2pi6Q-110">
          <mxGeometry width="100" height="100" relative="1" as="geometry">
            <mxPoint x="890" y="675" as="sourcePoint" />
            <mxPoint x="1170" y="618" as="targetPoint" />
          </mxGeometry>
        </mxCell>
        <mxCell id="QkU_ycG2qWLnNHQ2pi6Q-110" value="has_a" style="rhombus;whiteSpace=wrap;html=1;" vertex="1" parent="1">
          <mxGeometry x="970" y="600" width="80" height="80" as="geometry" />
        </mxCell>
        <mxCell id="QkU_ycG2qWLnNHQ2pi6Q-112" value="&lt;u&gt;id&lt;/u&gt;" style="ellipse;whiteSpace=wrap;html=1;" vertex="1" parent="1">
          <mxGeometry x="825" y="570" width="110" height="50" as="geometry" />
        </mxCell>
        <mxCell id="QkU_ycG2qWLnNHQ2pi6Q-113" value="orderDate" style="ellipse;whiteSpace=wrap;html=1;" vertex="1" parent="1">
          <mxGeometry x="700" y="570" width="110" height="50" as="geometry" />
        </mxCell>
        <mxCell id="QkU_ycG2qWLnNHQ2pi6Q-114" value="content" style="ellipse;whiteSpace=wrap;html=1;" vertex="1" parent="1">
          <mxGeometry x="600" y="600" width="110" height="50" as="geometry" />
        </mxCell>
        <mxCell id="QkU_ycG2qWLnNHQ2pi6Q-115" value="createAt" style="ellipse;whiteSpace=wrap;html=1;" vertex="1" parent="1">
          <mxGeometry x="520" y="640" width="110" height="50" as="geometry" />
        </mxCell>
        <mxCell id="QkU_ycG2qWLnNHQ2pi6Q-116" value="status" style="ellipse;whiteSpace=wrap;html=1;" vertex="1" parent="1">
          <mxGeometry x="540" y="700" width="110" height="50" as="geometry" />
        </mxCell>
        <mxCell id="QkU_ycG2qWLnNHQ2pi6Q-117" value="amount" style="ellipse;whiteSpace=wrap;html=1;" vertex="1" parent="1">
          <mxGeometry x="605" y="750" width="110" height="50" as="geometry" />
        </mxCell>
        <mxCell id="QkU_ycG2qWLnNHQ2pi6Q-118" value="paymentType" style="ellipse;whiteSpace=wrap;html=1;" vertex="1" parent="1">
          <mxGeometry x="700" y="780" width="110" height="50" as="geometry" />
        </mxCell>
        <mxCell id="QkU_ycG2qWLnNHQ2pi6Q-119" value="transactionNum" style="ellipse;whiteSpace=wrap;html=1;" vertex="1" parent="1">
          <mxGeometry x="820" y="780" width="110" height="50" as="geometry" />
        </mxCell>
        <mxCell id="QkU_ycG2qWLnNHQ2pi6Q-120" value="" style="endArrow=none;html=1;rounded=0;exitX=0.5;exitY=0;exitDx=0;exitDy=0;entryX=0.5;entryY=1;entryDx=0;entryDy=0;" edge="1" parent="1" source="QkU_ycG2qWLnNHQ2pi6Q-108" target="QkU_ycG2qWLnNHQ2pi6Q-112">
          <mxGeometry relative="1" as="geometry">
            <mxPoint x="810" y="560" as="sourcePoint" />
            <mxPoint x="970" y="560" as="targetPoint" />
          </mxGeometry>
        </mxCell>
        <mxCell id="QkU_ycG2qWLnNHQ2pi6Q-121" value="" style="endArrow=none;html=1;rounded=0;exitX=0.5;exitY=0;exitDx=0;exitDy=0;" edge="1" parent="1" source="QkU_ycG2qWLnNHQ2pi6Q-108" target="QkU_ycG2qWLnNHQ2pi6Q-113">
          <mxGeometry relative="1" as="geometry">
            <mxPoint x="810" y="560" as="sourcePoint" />
            <mxPoint x="970" y="560" as="targetPoint" />
          </mxGeometry>
        </mxCell>
        <mxCell id="QkU_ycG2qWLnNHQ2pi6Q-122" value="" style="endArrow=none;html=1;rounded=0;exitX=0.5;exitY=0;exitDx=0;exitDy=0;" edge="1" parent="1" source="QkU_ycG2qWLnNHQ2pi6Q-108" target="QkU_ycG2qWLnNHQ2pi6Q-114">
          <mxGeometry relative="1" as="geometry">
            <mxPoint x="810" y="560" as="sourcePoint" />
            <mxPoint x="970" y="560" as="targetPoint" />
          </mxGeometry>
        </mxCell>
        <mxCell id="QkU_ycG2qWLnNHQ2pi6Q-123" value="" style="endArrow=none;html=1;rounded=0;exitX=0.921;exitY=0.697;exitDx=0;exitDy=0;exitPerimeter=0;entryX=0;entryY=0.5;entryDx=0;entryDy=0;" edge="1" parent="1" source="QkU_ycG2qWLnNHQ2pi6Q-115" target="QkU_ycG2qWLnNHQ2pi6Q-108">
          <mxGeometry relative="1" as="geometry">
            <mxPoint x="810" y="560" as="sourcePoint" />
            <mxPoint x="970" y="560" as="targetPoint" />
          </mxGeometry>
        </mxCell>
        <mxCell id="QkU_ycG2qWLnNHQ2pi6Q-124" value="" style="endArrow=none;html=1;rounded=0;exitX=0.984;exitY=0.356;exitDx=0;exitDy=0;exitPerimeter=0;entryX=0;entryY=0.5;entryDx=0;entryDy=0;" edge="1" parent="1" source="QkU_ycG2qWLnNHQ2pi6Q-116" target="QkU_ycG2qWLnNHQ2pi6Q-108">
          <mxGeometry relative="1" as="geometry">
            <mxPoint x="810" y="560" as="sourcePoint" />
            <mxPoint x="970" y="560" as="targetPoint" />
          </mxGeometry>
        </mxCell>
        <mxCell id="QkU_ycG2qWLnNHQ2pi6Q-125" value="" style="endArrow=none;html=1;rounded=0;entryX=0.5;entryY=1;entryDx=0;entryDy=0;" edge="1" parent="1" source="QkU_ycG2qWLnNHQ2pi6Q-117" target="QkU_ycG2qWLnNHQ2pi6Q-108">
          <mxGeometry relative="1" as="geometry">
            <mxPoint x="810" y="560" as="sourcePoint" />
            <mxPoint x="970" y="560" as="targetPoint" />
          </mxGeometry>
        </mxCell>
        <mxCell id="QkU_ycG2qWLnNHQ2pi6Q-126" value="" style="endArrow=none;html=1;rounded=0;exitX=0.5;exitY=0;exitDx=0;exitDy=0;entryX=0.5;entryY=1;entryDx=0;entryDy=0;" edge="1" parent="1" source="QkU_ycG2qWLnNHQ2pi6Q-118" target="QkU_ycG2qWLnNHQ2pi6Q-108">
          <mxGeometry relative="1" as="geometry">
            <mxPoint x="810" y="560" as="sourcePoint" />
            <mxPoint x="970" y="560" as="targetPoint" />
          </mxGeometry>
        </mxCell>
        <mxCell id="QkU_ycG2qWLnNHQ2pi6Q-127" value="" style="endArrow=none;html=1;rounded=0;exitX=0.5;exitY=0;exitDx=0;exitDy=0;entryX=0.5;entryY=1;entryDx=0;entryDy=0;" edge="1" parent="1" source="QkU_ycG2qWLnNHQ2pi6Q-119" target="QkU_ycG2qWLnNHQ2pi6Q-108">
          <mxGeometry relative="1" as="geometry">
            <mxPoint x="810" y="560" as="sourcePoint" />
            <mxPoint x="970" y="560" as="targetPoint" />
          </mxGeometry>
        </mxCell>
      </root>
    </mxGraphModel>
  </diagram>
</mxfile>
